# xmcd
#
# Track frame offsets: 
#        150
#        13458
#        27678
#        39146
#        51702
#        62511
#        73456
#        84964
#        96297
#        107868
#        122787
#        135070
#        146890
#        158461
#        167433
#        176923
#        187879
#        199920
#
# Disc length: 2824 seconds
#
# Revision: 2
# Processed by: cddbd v1.5.2PL0 Copyright (c) Steve Scherf et al.
# Submitted via: ExactAudioCopyFreeDBPlugin 1.0
#
DISCID=020b0612
DTITLE=Various Artist - Philly Doo-Wop Classics (Jamie-Guyden Doo-Wop
DTITLE=Volume 3)
DYEAR=1998
DGENRE=Rhythm and Blues
TTITLE0=Ernie and The Halos - The Girl from Across the Sea
TTITLE1=Maureen Gray - Dancin' the Strand
TTITLE2=The Four J's - For Me and My Girl
TTITLE3=The Kit Kats - Puddin' n' Tain
TTITLE4=Anthony and The Sophomores - Mr. Bassman
TTITLE5=The Five Chords - Don't Just Stand There
TTITLE6=The Famous Hearts - Aisle of Love
TTITLE7=Anthony and The Sophomores - Serenade
TTITLE8=The Pacers - No Wonder I Love You
TTITLE9=The Fantasys - I Wonder
TTITLE10=Anthony and The Sophomores - One Summer Night
TTITLE11=Billy and The Essentials - Over the Weekend
TTITLE12=Ernie and The Halos - Darlin!!! Don't Make Me Cry
TTITLE13=Little Steve - I See a Star
TTITLE14=Billy and The Essentials - Steady Girl
TTITLE15=The Pacers - How Sweet
TTITLE16=The Stompers (Philly Doo-Wop Group) - Foolish One
TTITLE17=The Four J's - By Love Possessed
EXTD=
EXTT0=
EXTT1=
EXTT2=
EXTT3=
EXTT4=
EXTT5=
EXTT6=
EXTT7=
EXTT8=
EXTT9=
EXTT10=
EXTT11=
EXTT12=
EXTT13=
EXTT14=
EXTT15=
EXTT16=
EXTT17=
PLAYORDER=
